# Blender v2.82 (sub 7) OBJ File: 'gaurds.blend'
# www.blender.org
mtllib newinner1.mtl
o blank.004
v 51.974895 19.961384 -56.129120
v 53.246933 22.992451 -55.686005
v 50.577896 17.367970 -56.076515
v 51.891464 17.166767 -57.221039
v 52.173542 19.931566 -56.306206
v 53.444736 22.963087 -55.864464
v 54.043091 25.604715 -54.868427
v 55.334946 25.412523 -56.031876
v 54.518795 26.773598 -54.693832
v 55.807861 26.582670 -55.860489
v 60.855148 16.706284 -57.384377
v 62.439365 16.401691 -58.206734
v 63.634953 19.464039 -57.833916
v 62.072624 19.761660 -56.999512
v 77.305229 11.973397 -54.106441
v 50.864948 19.756609 -56.333527
v 52.143482 22.785295 -55.887077
v 78.286522 15.090921 -53.920567
v 67.376953 14.917130 -57.736481
v 65.683479 15.251311 -57.132454
v 66.852104 18.321781 -56.790627
v 68.518784 17.995611 -57.410889
v 75.941582 9.367854 -54.104801
v 48.993355 17.299191 -56.152199
v 50.269661 17.113785 -57.329422
v 77.789803 9.029855 -54.156044
v 53.736088 25.350689 -56.122955
v 52.475304 25.528797 -54.927296
v 52.950329 26.697483 -54.749123
v 54.208977 26.520487 -55.947952
v 77.584404 11.922357 -54.120060
v 51.060852 19.728058 -56.513855
v 52.338829 22.757113 -56.068779
v 78.561859 15.040865 -53.938461
v 78.632469 17.836529 -53.579838
v 80.401848 17.517771 -53.707775
v 79.005554 19.036215 -53.508293
v 80.763893 18.720144 -53.647423
v 85.358566 9.347988 -48.832134
v 87.086075 9.091915 -48.477428
v 87.909439 12.244987 -48.500938
v 86.205391 12.496826 -48.822372
v 96.213654 7.480639 -36.553474
v 76.416069 11.684563 -54.859768
v 77.414619 14.797902 -54.658047
v 96.910217 10.637382 -36.874798
v 90.619019 8.363152 -44.996017
v 88.954918 8.575625 -45.515385
v 89.750343 11.731768 -45.596066
v 91.394905 11.521917 -45.110992
v 95.112442 4.799919 -36.401558
v 74.520660 9.226801 -55.085548
v 76.387238 8.876529 -55.197556
v 96.612579 4.699544 -35.541801
v 79.067818 17.348288 -54.679985
v 77.281456 17.678200 -54.495857
v 77.660912 18.876450 -54.416309
v 79.436157 18.549343 -54.611115
v 96.442741 7.464789 -36.426964
v 76.698006 11.632083 -54.878544
v 77.692657 14.746429 -54.680920
v 97.137932 10.621445 -36.753319
v 97.015442 13.381105 -37.250210
v 98.486275 13.279255 -36.480633
v 97.280815 14.595025 -37.376404
v 98.747704 14.492893 -36.619808
v 100.026543 6.757365 -28.414658
v 101.320145 6.744352 -27.422379
v 101.977783 9.892535 -27.943958
v 100.688606 9.907763 -28.907925
v 104.156624 7.595018 -14.328176
v 95.931831 6.957712 -37.450157
v 96.635605 10.114697 -37.751080
v 104.817398 10.712429 -15.050940
v 102.711617 6.898537 -23.220226
v 101.499550 6.874077 -24.271412
v 102.157005 10.017058 -24.834267
v 103.366837 10.038888 -23.808838
v 103.175148 4.896916 -13.976917
v 94.541283 4.310290 -37.759762
v 96.075859 4.194968 -36.916187
v 104.223976 5.003139 -12.781239
v 97.975655 12.776567 -37.772415
v 96.473167 12.892403 -38.525093
v 96.740791 14.106733 -38.642014
v 98.238960 13.990725 -37.902557
v 104.318039 7.610613 -14.148125
v 96.164536 6.940411 -37.324509
v 96.866959 10.097322 -37.630280
v 104.979378 10.727587 -14.873550
v 104.971169 13.373443 -15.925498
v 106.024483 13.471154 -14.784292
v 105.224144 14.571211 -16.209858
v 106.278328 14.667645 -15.076550
v 104.776123 8.005294 -6.165323
v 105.666000 8.160583 -4.928112
v 106.350555 11.261385 -5.756618
v 105.457191 11.108942 -6.979327
v 104.404282 10.203538 7.532156
v 104.269081 6.953012 -15.042135
v 104.929375 10.072579 -15.750361
v 105.131943 13.281943 6.634310
v 105.641769 8.764312 -0.880377
v 104.818413 8.586536 -2.152040
v 105.512070 11.683408 -2.993516
v 106.339394 11.858637 -1.733779
v 103.458923 7.501989 7.936374
v 103.208443 4.210573 -15.161619
v 104.280502 4.308881 -13.967028
v 104.128014 7.733020 9.330720
v 106.077042 12.785498 -15.915687
v 105.001610 12.695575 -17.054138
v 105.253563 13.894358 -17.333172
v 106.329765 13.983000 -16.202816
v 104.508026 10.238506 7.744444
v 104.432785 6.967914 -14.861599
v 105.093582 10.087031 -15.572612
v 105.236641 13.316700 6.845948
v 105.433815 15.871748 5.502255
v 106.116417 16.097919 6.879066
v 105.715157 17.053167 5.146447
v 106.399971 17.278605 6.520743
v 102.678658 11.152758 15.520299
v 103.161407 11.417549 16.983002
v 103.925346 14.493121 16.076660
v 103.437294 14.229183 14.615354
v 97.685944 14.036508 29.268055
v 104.734787 9.521321 6.979393
v 105.459076 12.601482 6.088961
v 98.478477 17.118475 28.437115
v 101.871162 12.243344 21.003927
v 101.490334 11.960759 19.491013
v 102.260712 15.038338 18.602182
v 102.646072 15.320715 20.116512
v 96.845718 11.299598 29.499332
v 103.846352 6.740738 6.940282
v 104.536499 6.967154 8.329210
v 96.930023 11.621220 31.145580
v 106.511055 15.337957 5.900088
v 105.807877 15.116570 4.530160
v 106.087463 16.298483 4.175481
v 106.792824 16.519072 5.542514
v 97.700462 14.085873 29.521042
v 104.840462 9.555916 7.191496
v 105.565689 12.635847 6.300363
v 98.493385 17.168198 28.692120
v 98.997353 19.676966 27.237022
v 99.088318 20.003109 28.909695
v 99.309799 20.858231 26.901855
v 99.402382 21.184942 28.577980
v 98.263214 13.345079 28.818020
v 99.052330 16.427019 27.985344
v 97.639877 10.514515 28.621166
v 97.764488 10.834061 30.262062
v 99.913223 19.213291 28.007320
v 99.781128 18.889936 26.343094
v 100.092842 20.070448 26.003403
v 100.226791 20.394238 27.670551
v 98.281418 13.394304 29.070766
v 99.070976 16.476543 28.239868
vt 11.049465 3.341315
vt 4.540575 3.341229
vt 4.540575 3.341229
vt 11.049465 3.341315
vt 11.276459 0.000000
vt 4.874572 0.000000
vt 4.879345 0.000000
vt 11.271688 0.000000
vt 8.575539 3.295888
vt 8.575539 -2.295674
vt 8.575539 -2.291368
vt 8.575539 3.291588
vt 4.874576 1.000000
vt 11.276463 1.000000
vt 11.271685 1.000000
vt 4.879344 1.000000
vt 11.346682 3.356114
vt 11.346657 -2.356117
vt 4.804493 -2.356048
vt 4.804321 3.356200
vt 4.821139 -2.341240
vt 11.329985 -2.341269
vt 11.329985 -2.341269
vt 4.821139 -2.341240
vt 7.575539 3.295878
vt 7.575539 -2.295664
vt 7.575539 -2.291360
vt 7.575539 3.291576
vt 11.330041 3.341315
vt 4.821150 3.341229
vt 11.330041 3.341315
vt 4.821150 3.341229
vt 11.557034 0.000000
vt 5.155148 0.000000
vt 5.159921 0.000000
vt 11.552263 0.000000
vt 8.856114 3.295888
vt 8.856114 -2.295674
vt 8.856114 -2.291368
vt 8.856114 3.291588
vt 5.155152 1.000000
vt 11.557037 1.000000
vt 11.552260 1.000000
vt 5.159920 1.000000
vt 11.627257 3.356114
vt 11.627232 -2.356117
vt 5.085069 -2.356048
vt 5.084897 3.356200
vt 5.101715 -2.341240
vt 11.610561 -2.341269
vt 11.610561 -2.341269
vt 5.101715 -2.341240
vt 7.856114 3.295878
vt 7.856114 -2.295664
vt 7.856114 -2.291360
vt 7.856114 3.291576
vt 11.610617 3.341315
vt 5.101726 3.341229
vt 11.610617 3.341315
vt 5.101726 3.341229
vt 11.837610 0.000000
vt 5.435724 0.000000
vt 5.440496 0.000000
vt 11.832839 0.000000
vt 9.136690 3.295888
vt 9.136690 -2.295674
vt 9.136690 -2.291368
vt 9.136690 3.291588
vt 5.435728 1.000000
vt 11.837614 1.000000
vt 11.832836 1.000000
vt 5.440496 1.000000
vt 11.907833 3.356114
vt 11.907808 -2.356117
vt 5.365644 -2.356048
vt 5.365473 3.356200
vt 5.382290 -2.341240
vt 11.891136 -2.341269
vt 11.891136 -2.341269
vt 5.382290 -2.341240
vt 8.136690 3.295878
vt 8.136690 -2.295664
vt 8.136690 -2.291360
vt 8.136690 3.291576
vt 11.891192 3.341315
vt 5.382301 3.341229
vt 11.891192 3.341315
vt 5.382301 3.341229
vt 12.118185 0.000000
vt 5.716299 0.000000
vt 5.721071 0.000000
vt 12.113414 0.000000
vt 9.417265 3.295888
vt 9.417265 -2.295674
vt 9.417265 -2.291368
vt 9.417265 3.291588
vt 5.716302 1.000000
vt 12.118189 1.000000
vt 12.113411 1.000000
vt 5.721071 1.000000
vt 12.188408 3.356114
vt 12.188383 -2.356117
vt 5.646219 -2.356048
vt 5.646048 3.356200
vt 5.662865 -2.341240
vt 12.171711 -2.341269
vt 12.171711 -2.341269
vt 5.662865 -2.341240
vt 8.417265 3.295878
vt 8.417265 -2.295664
vt 8.417265 -2.291360
vt 8.417265 3.291576
vt 12.171767 3.341315
vt 5.662876 3.341229
vt 12.171767 3.341315
vt 5.662876 3.341229
vt 12.398761 0.000000
vt 5.996874 0.000000
vt 6.001647 0.000000
vt 12.393990 0.000000
vt 9.697841 3.295888
vt 9.697841 -2.295674
vt 9.697841 -2.291368
vt 9.697841 3.291588
vt 5.996878 1.000000
vt 12.398764 1.000000
vt 12.393987 1.000000
vt 6.001647 1.000000
vt 12.468984 3.356114
vt 12.468958 -2.356117
vt 5.926795 -2.356048
vt 5.926623 3.356200
vt 5.943441 -2.341240
vt 12.452288 -2.341269
vt 12.452288 -2.341269
vt 5.943441 -2.341240
vt 8.697841 3.295878
vt 8.697841 -2.295664
vt 8.697841 -2.291360
vt 8.697841 3.291576
vt 12.452343 3.341315
vt 5.943452 3.341229
vt 12.452343 3.341315
vt 5.943452 3.341229
vt 6.224017 -2.341240
vt 12.732862 -2.341269
vt 12.732862 -2.341269
vt 6.224017 -2.341240
vn 0.5988 -0.3494 0.7207
vn 0.4079 -0.2690 0.8725
vn 0.0986 0.0659 -0.9929
vn -0.2973 0.2127 -0.9308
vn -0.2522 -0.9368 -0.2424
vn -0.6169 0.3561 -0.7019
vn 0.1603 -0.1089 -0.9810
vn -0.2827 -0.0627 0.9572
vn -0.0693 -0.0890 -0.9936
vn -0.0224 -0.3481 0.9372
vn 0.0693 0.3770 -0.9236
vn 0.2140 0.1190 -0.9696
vn -0.2253 0.1115 0.9679
vn 0.1010 0.0288 0.9945
vn -0.0495 0.1119 0.9925
vn 0.2797 0.8241 0.4926
vn 0.1500 0.1790 -0.9724
vn 0.1206 0.9888 -0.0874
vn -0.1380 -0.2529 0.9576
vn -0.1436 -0.9809 0.1310
vn 0.0667 -0.0542 -0.9963
vn -0.4320 -0.7601 -0.4854
vn -0.2607 0.0046 0.9654
vn 0.1929 0.0214 -0.9810
vn 0.0460 -0.1432 0.9886
vn -0.0058 0.1302 -0.9915
vn -0.1037 -0.0631 0.9926
vn 0.2589 0.9358 0.2390
vn 0.1059 0.0612 -0.9925
vn 0.0621 -0.0737 0.9953
vn -0.0725 -0.0789 0.9942
vn -0.1857 0.0514 0.9813
vn 0.6424 -0.1878 -0.7430
vn 0.2775 -0.0987 -0.9556
vn -0.1088 -0.9884 -0.1060
vn -0.0891 0.0891 -0.9920
vn 0.6741 -0.3427 -0.6543
vn -0.7819 0.1110 0.6135
vn 0.4981 -0.3840 -0.7774
vn -0.5823 -0.0912 0.8078
vn 0.6176 0.1355 -0.7747
vn 0.7312 -0.0893 -0.6763
vn -0.7204 0.3396 0.6047
vn -0.4822 0.3196 0.8157
vn -0.5825 0.3772 0.7200
vn -0.0291 0.9356 0.3519
vn 0.6828 -0.0427 -0.7293
vn 0.1766 0.9639 -0.1993
vn -0.6705 -0.0222 0.7416
vn -0.1920 -0.9487 0.2512
vn 0.6045 -0.3238 -0.7278
vn -0.1030 -0.8956 -0.4327
vn -0.7591 0.2164 0.6139
vn 0.7112 -0.2076 -0.6717
vn -0.5390 0.1410 0.8305
vn 0.5739 -0.1488 -0.8053
vn -0.6462 0.1893 0.7393
vn 0.1115 0.9875 0.1112
vn 0.6486 -0.1906 -0.7369
vn -0.4419 0.1917 0.8763
vn -0.6232 0.1813 0.7607
vn -0.5834 0.2469 0.7738
vn 0.9135 -0.2509 -0.3203
vn 0.6305 -0.2654 -0.7294
vn -0.0366 -0.9985 0.0419
vn 0.4263 -0.1833 -0.8858
vn 0.8882 -0.3894 -0.2439
vn -0.9740 0.0969 0.2047
vn 0.8246 -0.4527 -0.3393
vn -0.9021 0.0361 0.4300
vn 0.9241 0.0079 -0.3820
vn 0.9523 -0.1102 -0.2847
vn -0.9080 0.3803 0.1758
vn -0.8184 0.4152 0.3974
vn -0.8547 0.4279 0.2941
vn -0.1871 0.9694 0.1590
vn 0.9420 -0.0886 -0.3237
vn 0.2356 0.9253 -0.2971
vn -0.9381 0.0531 0.3423
vn -0.2631 -0.9072 0.3283
vn 0.8692 -0.3950 -0.2976
vn 0.1282 -0.9607 -0.2463
vn -0.9519 0.2385 0.1926
vn 0.9309 -0.2486 -0.2676
vn -0.8731 0.2477 0.4199
vn 0.8964 -0.2445 -0.3698
vn -0.9147 0.2509 0.3168
vn 0.0357 0.9986 -0.0382
vn 0.9155 -0.2514 -0.3140
vn -0.7117 0.3033 0.6336
vn -0.9073 0.2518 0.3368
vn -0.7870 0.3138 0.5312
vn 0.9768 -0.2127 0.0232
vn 0.8142 -0.3163 -0.4868
vn -0.0259 -0.9893 0.1433
vn 0.7038 -0.3003 -0.6438
vn 0.9329 -0.3524 0.0746
vn -0.9938 0.0338 -0.1062
vn 0.9127 -0.4079 0.0243
vn -0.9952 0.0332 0.0922
vn 0.9993 0.0153 -0.0352
vn 0.9977 -0.0633 0.0260
vn -0.9298 0.3378 -0.1465
vn -0.9192 0.3915 0.0426
vn -0.9226 0.3827 -0.0484
vn -0.2509 0.9680 0.0065
vn 0.9988 -0.0476 0.0073
vn 0.3079 0.8900 -0.3363
vn -0.9996 0.0254 0.0092
vn -0.3378 -0.8804 0.3330
vn 0.9318 -0.3600 0.0470
vn 0.2272 -0.9711 -0.0729
vn -0.9740 0.1869 -0.1278
vn 0.9767 -0.2087 0.0506
vn -0.9711 0.2290 0.0667
vn 0.9769 -0.2138 -0.0039
vn -0.9769 0.2123 -0.0259
vn 0.0249 0.9896 -0.1416
vn 0.9767 -0.2125 0.0285
vn -0.8678 0.3220 0.3785
vn -0.9764 0.2158 -0.0110
vn -0.9199 0.3015 0.2509
vn 0.9361 -0.1403 0.3226
vn 0.9395 -0.2889 -0.1839
vn -0.0382 -0.9816 0.1870
vn 0.8618 -0.3227 -0.3914
vn 0.8863 -0.2748 0.3727
vn -0.9151 -0.0263 -0.4023
vn 0.8879 -0.3411 0.3086
vn -0.9804 -0.0269 -0.1950
vn 0.9665 0.0798 0.2441
vn 0.9437 0.0024 0.3309
vn -0.8641 0.2539 -0.4347
vn -0.9101 0.3328 -0.2470
vn -0.8872 0.3095 -0.3422
vn -0.2747 0.9528 -0.1296
vn 0.9519 0.0160 0.3060
vn 0.3731 0.8806 -0.2922
vn -0.9572 -0.0419 -0.2862
vn -0.3917 -0.8883 0.2396
vn 0.8964 -0.2823 0.3418
vn 0.2676 -0.9612 0.0669
vn -0.9001 0.1085 -0.4220
vn 0.9254 -0.1332 0.3549
vn -0.9593 0.1681 -0.2267
vn 0.9471 -0.1476 0.2851
vn -0.9352 0.1395 -0.3255
vn 0.0374 0.9818 -0.1864
vn 0.9340 -0.1396 0.3288
vn -0.9664 0.2570 0.0029
vn -0.9396 0.1449 -0.3101
vn 0.9645 -0.2628 -0.0260
usemtl (null).004
s 1
f 7/1/1 8/2/1 10/3/1 9/4/1
f 11/5/2 12/6/2 13/7/2 14/8/2
f 15/9/3 16/10/3 17/11/3 18/12/3
f 19/13/4 20/14/4 21/15/4 22/16/4
f 23/17/5 24/18/5 25/19/5 26/20/5
f 27/21/6 28/22/6 29/23/6 30/24/6
f 31/25/7 23/17/7 11/5/7
f 12/6/8 26/20/8 15/9/8
f 32/26/9 20/14/9 24/18/9
f 16/10/10 25/19/10 19/13/10
f 33/27/11 28/22/11 21/15/11
f 34/28/12 14/8/12 35/29/12
f 13/7/13 18/12/13 36/30/13
f 17/11/14 22/16/14 27/21/14
f 24/18/15 23/17/15 31/25/15 32/26/15
f 23/17/16 26/20/16 12/6/16 11/5/16
f 26/20/17 25/19/17 16/10/17 15/9/17
f 25/19/18 24/18/18 20/14/18 19/13/18
f 33/27/19 34/28/19 35/29/19 28/22/19
f 14/8/20 13/7/20 36/30/20 35/29/20
f 18/12/21 17/11/21 27/21/21 36/30/21
f 22/16/22 21/15/22 28/22/22 27/21/22
f 15/9/23 18/12/23 13/7/23 12/6/23
f 34/28/24 31/25/24 11/5/24 14/8/24
f 19/13/25 22/16/25 17/11/25 16/10/25
f 21/15/26 20/14/26 32/26/26 33/27/26
f 32/26/27 31/25/27 34/28/27 33/27/27
f 37/31/28 38/32/28 30/24/28 29/23/28
f 36/30/29 27/21/29 30/24/29 38/32/29
f 35/29/30 36/30/30 38/32/30 37/31/30
f 28/22/31 35/29/31 37/31/31 29/23/31
f 39/33/32 40/34/32 41/35/32 42/36/32
f 43/37/33 44/38/33 45/39/33 46/40/33
f 47/41/34 48/42/34 49/43/34 50/44/34
f 51/45/35 52/46/35 53/47/35 54/48/35
f 55/49/36 56/50/36 57/51/36 58/52/36
f 59/53/37 51/45/37 39/33/37
f 40/34/38 54/48/38 43/37/38
f 60/54/39 48/42/39 52/46/39
f 44/38/40 53/47/40 47/41/40
f 61/55/41 56/50/41 49/43/41
f 62/56/42 42/36/42 63/57/42
f 41/35/43 46/40/43 64/58/43
f 45/39/44 50/44/44 55/49/44
f 52/46/45 51/45/45 59/53/45 60/54/45
f 51/45/46 54/48/46 40/34/46 39/33/46
f 54/48/47 53/47/47 44/38/47 43/37/47
f 53/47/48 52/46/48 48/42/48 47/41/48
f 61/55/49 62/56/49 63/57/49 56/50/49
f 42/36/50 41/35/50 64/58/50 63/57/50
f 46/40/51 45/39/51 55/49/51 64/58/51
f 50/44/52 49/43/52 56/50/52 55/49/52
f 43/37/53 46/40/53 41/35/53 40/34/53
f 62/56/54 59/53/54 39/33/54 42/36/54
f 47/41/55 50/44/55 45/39/55 44/38/55
f 49/43/56 48/42/56 60/54/56 61/55/56
f 60/54/57 59/53/57 62/56/57 61/55/57
f 65/59/58 66/60/58 58/52/58 57/51/58
f 64/58/59 55/49/59 58/52/59 66/60/59
f 63/57/60 64/58/60 66/60/60 65/59/60
f 56/50/61 63/57/61 65/59/61 57/51/61
f 67/61/62 68/62/62 69/63/62 70/64/62
f 71/65/63 72/66/63 73/67/63 74/68/63
f 75/69/64 76/70/64 77/71/64 78/72/64
f 79/73/65 80/74/65 81/75/65 82/76/65
f 83/77/66 84/78/66 85/79/66 86/80/66
f 87/81/67 79/73/67 67/61/67
f 68/62/68 82/76/68 71/65/68
f 88/82/69 76/70/69 80/74/69
f 72/66/70 81/75/70 75/69/70
f 89/83/71 84/78/71 77/71/71
f 90/84/72 70/64/72 91/85/72
f 69/63/73 74/68/73 92/86/73
f 73/67/74 78/72/74 83/77/74
f 80/74/75 79/73/75 87/81/75 88/82/75
f 79/73/76 82/76/76 68/62/76 67/61/76
f 82/76/77 81/75/77 72/66/77 71/65/77
f 81/75/78 80/74/78 76/70/78 75/69/78
f 89/83/79 90/84/79 91/85/79 84/78/79
f 70/64/80 69/63/80 92/86/80 91/85/80
f 74/68/81 73/67/81 83/77/81 92/86/81
f 78/72/82 77/71/82 84/78/82 83/77/82
f 71/65/83 74/68/83 69/63/83 68/62/83
f 90/84/84 87/81/84 67/61/84 70/64/84
f 75/69/85 78/72/85 73/67/85 72/66/85
f 77/71/86 76/70/86 88/82/86 89/83/86
f 88/82/87 87/81/87 90/84/87 89/83/87
f 93/87/88 94/88/88 86/80/88 85/79/88
f 92/86/89 83/77/89 86/80/89 94/88/89
f 91/85/90 92/86/90 94/88/90 93/87/90
f 84/78/91 91/85/91 93/87/91 85/79/91
f 95/89/92 96/90/92 97/91/92 98/92/92
f 99/93/93 100/94/93 101/95/93 102/96/93
f 103/97/94 104/98/94 105/99/94 106/100/94
f 107/101/95 108/102/95 109/103/95 110/104/95
f 111/105/96 112/106/96 113/107/96 114/108/96
f 115/109/97 107/101/97 95/89/97
f 96/90/98 110/104/98 99/93/98
f 116/110/99 104/98/99 108/102/99
f 100/94/100 109/103/100 103/97/100
f 117/111/101 112/106/101 105/99/101
f 118/112/102 98/92/102 119/113/102
f 97/91/103 102/96/103 120/114/103
f 101/95/104 106/100/104 111/105/104
f 108/102/105 107/101/105 115/109/105 116/110/105
f 107/101/106 110/104/106 96/90/106 95/89/106
f 110/104/107 109/103/107 100/94/107 99/93/107
f 109/103/108 108/102/108 104/98/108 103/97/108
f 117/111/109 118/112/109 119/113/109 112/106/109
f 98/92/110 97/91/110 120/114/110 119/113/110
f 102/96/111 101/95/111 111/105/111 120/114/111
f 106/100/112 105/99/112 112/106/112 111/105/112
f 99/93/113 102/96/113 97/91/113 96/90/113
f 118/112/114 115/109/114 95/89/114 98/92/114
f 103/97/115 106/100/115 101/95/115 100/94/115
f 105/99/116 104/98/116 116/110/116 117/111/116
f 116/110/117 115/109/117 118/112/117 117/111/117
f 121/115/118 122/116/118 114/108/118 113/107/118
f 120/114/119 111/105/119 114/108/119 122/116/119
f 119/113/120 120/114/120 122/116/120 121/115/120
f 112/106/121 119/113/121 121/115/121 113/107/121
f 123/117/122 124/118/122 125/119/122 126/120/122
f 127/121/123 128/122/123 129/123/123 130/124/123
f 131/125/124 132/126/124 133/127/124 134/128/124
f 135/129/125 136/130/125 137/131/125 138/132/125
f 139/133/126 140/134/126 141/135/126 142/136/126
f 143/137/127 135/129/127 123/117/127
f 124/118/128 138/132/128 127/121/128
f 144/138/129 132/126/129 136/130/129
f 128/122/130 137/131/130 131/125/130
f 145/139/131 140/134/131 133/127/131
f 146/140/132 126/120/132 147/141/132
f 125/119/133 130/124/133 148/142/133
f 129/123/134 134/128/134 139/133/134
f 136/130/135 135/129/135 143/137/135 144/138/135
f 135/129/136 138/132/136 124/118/136 123/117/136
f 138/132/137 137/131/137 128/122/137 127/121/137
f 137/131/138 136/130/138 132/126/138 131/125/138
f 145/139/139 146/140/139 147/141/139 140/134/139
f 126/120/140 125/119/140 148/142/140 147/141/140
f 130/124/141 129/123/141 139/133/141 148/142/141
f 134/128/142 133/127/142 140/134/142 139/133/142
f 127/121/143 130/124/143 125/119/143 124/118/143
f 146/140/144 143/137/144 123/117/144 126/120/144
f 131/125/145 134/128/145 129/123/145 128/122/145
f 133/127/146 132/126/146 144/138/146 145/139/146
f 144/138/147 143/137/147 146/140/147 145/139/147
f 149/143/148 150/144/148 142/136/148 141/135/148
f 148/142/149 139/133/149 142/136/149 150/144/149
f 147/141/150 148/142/150 150/144/150 149/143/150
f 140/134/151 147/141/151 149/143/151 141/135/151
f 155/145/152 156/146/152 157/147/152 158/148/152
l 1 2
l 3 4
l 3 5
l 1 4
l 6 7
l 2 8
l 5 6
l 151 152
l 153 154
l 153 159
l 151 154
l 156 160
l 152 155
l 159 160
