# Blender v2.82 (sub 7) OBJ File: 'gaurds.blend'
# www.blender.org
mtllib newinner3.mtl
o blank.005
v 9.984030 3.975285 -49.771294
v 9.661171 7.160169 -50.187244
v 9.928108 1.204169 -49.096275
v 11.173748 1.316441 -49.762833
v 10.173662 3.992329 -49.874146
v 9.850227 7.177165 -50.290783
v 9.056103 9.862309 -50.225048
v 10.285020 9.972950 -50.900364
v 8.922911 11.085968 -50.387032
v 10.149546 11.196377 -51.063759
v 16.850107 3.890406 -48.290695
v 18.127758 4.015966 -48.849411
v 17.769178 7.199904 -49.292099
v 16.498753 7.075159 -48.729080
v 28.665987 4.963386 -44.871861
v 9.435283 3.386050 -50.158443
v 9.119457 6.571547 -50.571915
v 28.254488 8.135228 -45.363300
v 21.589458 4.300750 -47.885292
v 20.283939 4.166082 -47.380276
v 19.921787 7.348905 -47.830383
v 21.219631 7.482661 -48.340298
v 28.616320 2.189147 -44.216030
v 8.992241 0.590561 -49.544777
v 10.234114 0.700970 -50.223309
v 30.019350 2.353354 -44.574703
v 9.368465 9.359656 -51.350979
v 8.142735 9.250759 -50.664200
v 8.010419 10.474583 -50.825119
v 9.233957 10.583262 -51.513260
v 28.879446 4.988247 -44.928310
v 9.624897 3.402942 -50.262375
v 9.308485 6.588377 -50.676510
v 28.467123 8.159959 -45.420879
v 27.505186 10.812359 -45.547070
v 28.885630 10.973145 -45.924458
v 27.339161 12.030791 -45.739475
v 28.716469 12.191077 -46.119724
v 35.322403 5.158058 -41.701550
v 36.743515 5.344503 -41.898502
v 36.290703 8.511499 -42.439827
v 34.877007 8.326480 -42.234657
v 46.300941 6.773500 -34.797115
v 28.220030 4.355484 -45.376530
v 27.816145 7.528400 -45.862862
v 45.824707 9.927092 -35.405991
v 40.008812 5.786438 -39.966137
v 38.570534 5.586607 -39.855606
v 38.116432 8.752004 -40.408176
v 39.548203 8.950429 -40.527229
v 46.245171 3.993151 -34.182396
v 27.789312 1.542547 -44.869598
v 29.190683 1.703653 -45.246624
v 47.732689 4.228478 -34.059715
v 28.083027 10.327397 -46.576466
v 26.704165 10.169554 -46.181591
v 26.539579 11.388322 -46.372044
v 27.915266 11.545679 -46.769718
v 46.528366 6.809289 -34.780254
v 28.433731 4.380095 -45.434532
v 28.028990 7.552869 -45.921982
v 46.052116 9.962784 -35.390369
v 44.954514 12.566782 -35.830914
v 46.435104 12.799198 -35.730164
v 44.763458 13.777689 -36.071545
v 46.243042 14.009657 -35.974327
v 51.958954 7.239937 -29.403599
v 53.400841 7.488079 -29.073120
v 52.946587 10.644131 -29.710766
v 51.500793 10.395856 -30.038002
v 60.282089 8.962256 -18.527103
v 46.032684 6.148565 -35.436928
v 45.560173 9.303232 -36.039307
v 59.952995 12.135872 -19.074711
v 55.947098 8.012104 -25.983952
v 54.527832 7.761979 -26.421322
v 54.098938 10.921494 -27.047226
v 55.525726 11.172677 -26.608154
v 60.088127 6.157794 -18.160450
v 45.641678 3.312475 -35.089809
v 47.135414 3.545183 -34.991798
v 61.456268 6.390882 -17.450317
v 45.847023 12.119393 -36.639069
v 44.361923 11.889772 -36.714741
v 44.170425 13.100906 -36.953369
v 45.654305 13.330050 -36.881294
v 60.493973 8.998523 -18.417416
v 46.261024 6.184155 -35.422119
v 45.788483 9.338717 -36.025711
v 60.167625 12.172688 -18.962509
v 59.184982 14.783026 -19.656879
v 60.595619 15.024719 -18.903934
v 59.047760 16.000673 -19.885605
v 60.464409 16.243626 -19.127655
v 63.848701 9.052866 -10.797492
v 65.106194 9.228895 -9.770984
v 64.920799 12.433138 -10.115134
v 63.644348 12.253650 -11.172496
v 67.032280 9.003329 4.983402
v 60.252747 8.362395 -19.297413
v 59.916840 11.534739 -19.850082
v 67.026009 12.220268 5.061202
v 66.387184 9.345522 -5.288468
v 65.217018 9.214857 -6.496091
v 65.082115 12.426592 -6.740001
v 66.270889 12.559971 -5.495427
v 66.676811 6.217952 4.520294
v 59.839836 5.511127 -19.301659
v 61.221443 5.749643 -18.626778
v 67.492371 6.229485 6.066926
v 60.324257 14.376410 -20.114246
v 58.903023 14.129996 -20.827152
v 58.759735 15.346455 -21.061455
v 60.186600 15.594013 -20.344208
v 67.160194 9.005372 5.223104
v 60.465965 8.399181 -19.191029
v 60.132729 11.572043 -19.741268
v 67.155952 12.222301 5.305753
v 66.652161 14.962601 4.715127
v 67.498756 14.973598 6.338056
v 66.647987 16.200439 4.717741
v 67.499916 16.211485 6.352691
v 67.388512 8.528257 4.040442
v 67.375420 11.745216 4.103613
v 67.021370 5.767402 3.071048
v 67.890625 5.789916 4.599499
v 67.868134 14.534888 4.801829
v 66.965813 14.512363 3.187275
v 66.956276 15.750248 3.174746
v 67.864403 15.772985 4.802286
v 67.521591 8.531326 4.279256
v 67.510574 11.748272 4.347696
vt 5.999106 3.341315
vt -0.509784 3.341229
vt -0.509784 3.341229
vt 5.999106 3.341315
vt 6.226100 0.000000
vt -0.175787 0.000000
vt -0.171014 0.000000
vt 6.221329 0.000000
vt 3.525180 3.295888
vt 3.525180 -2.295674
vt 3.525179 -2.291368
vt 3.525180 3.291588
vt -0.175783 1.000000
vt 6.226103 1.000000
vt 6.221326 1.000000
vt -0.171015 1.000000
vt 6.296322 3.356114
vt 6.296297 -2.356117
vt -0.245866 -2.356048
vt -0.246037 3.356200
vt -0.229220 -2.341240
vt 6.279626 -2.341269
vt 6.279626 -2.341269
vt -0.229220 -2.341240
vt 2.525180 3.295878
vt 2.525180 -2.295664
vt 2.525180 -2.291360
vt 2.525180 3.291576
vt 6.279682 3.341315
vt -0.229209 3.341229
vt 6.279682 3.341315
vt -0.229209 3.341229
vt 6.506675 0.000000
vt 0.104789 0.000000
vt 0.109562 0.000000
vt 6.501904 0.000000
vt 3.805755 3.295888
vt 3.805755 -2.295674
vt 3.805755 -2.291368
vt 3.805755 3.291588
vt 0.104793 1.000000
vt 6.506679 1.000000
vt 6.501901 1.000000
vt 0.109561 1.000000
vt 6.576898 3.356114
vt 6.576873 -2.356117
vt 0.034710 -2.356048
vt 0.034538 3.356200
vt 0.051355 -2.341240
vt 6.560202 -2.341269
vt 6.560202 -2.341269
vt 0.051355 -2.341240
vt 2.805755 3.295878
vt 2.805755 -2.295664
vt 2.805755 -2.291360
vt 2.805755 3.291576
vt 6.560257 3.341315
vt 0.051367 3.341229
vt 6.560257 3.341315
vt 0.051367 3.341229
vt 6.787251 0.000000
vt 0.385364 0.000000
vt 0.390137 0.000000
vt 6.782479 0.000000
vt 4.086331 3.295888
vt 4.086330 -2.295674
vt 4.086330 -2.291368
vt 4.086330 3.291588
vt 0.385368 1.000000
vt 6.787254 1.000000
vt 6.782476 1.000000
vt 0.390136 1.000000
vt 6.857473 3.356114
vt 6.857449 -2.356117
vt 0.315285 -2.356048
vt 0.315114 3.356200
vt 0.331931 -2.341240
vt 6.840777 -2.341269
vt 6.840777 -2.341269
vt 0.331931 -2.341240
vt 3.086331 3.295878
vt 3.086331 -2.295664
vt 3.086331 -2.291360
vt 3.086331 3.291576
vt 6.840833 3.341315
vt 0.331942 3.341229
vt 6.840833 3.341315
vt 0.331942 3.341229
vt 7.067826 0.000000
vt 0.665940 0.000000
vt 0.670713 0.000000
vt 7.063055 0.000000
vt 4.366906 3.295888
vt 4.366906 -2.295674
vt 4.366906 -2.291368
vt 4.366906 3.291588
vt 0.665944 1.000000
vt 7.067830 1.000000
vt 7.063052 1.000000
vt 0.670712 1.000000
vt 7.138049 3.356114
vt 7.138024 -2.356117
vt 0.595861 -2.356048
vt 0.595689 3.356200
vt 0.612506 -2.341240
vt 7.121353 -2.341269
vt 7.121353 -2.341269
vt 0.612506 -2.341240
vt 3.366906 3.295878
vt 3.366906 -2.295664
vt 3.366906 -2.291360
vt 3.366906 3.291576
vt 7.121408 3.341315
vt 0.612518 3.341229
vt 7.121408 3.341315
vt 0.612518 3.341229
vt 0.893082 -2.341240
vt 7.401928 -2.341269
vt 7.401928 -2.341269
vt 0.893082 -2.341240
vn 0.4640 0.1666 0.8700
vn 0.3833 0.1684 0.9082
vn 0.2704 -0.1053 -0.9570
vn -0.3426 -0.1708 -0.9238
vn 0.0909 -0.9954 -0.0317
vn -0.4715 -0.1658 -0.8661
vn 0.2819 -0.2614 -0.9231
vn -0.3464 -0.0731 0.9352
vn 0.2690 -0.2945 -0.9170
vn -0.1777 -0.0766 0.9811
vn 0.2497 0.1138 -0.9616
vn 0.2620 0.0491 -0.9638
vn -0.3591 0.2573 0.8971
vn -0.1945 0.2800 0.9401
vn -0.2752 0.2784 0.9202
vn 0.0142 0.9408 0.3387
vn 0.2643 0.0652 -0.9622
vn -0.2314 0.9231 -0.3070
vn -0.2530 -0.0806 0.9641
vn 0.2153 -0.9199 0.3276
vn 0.2760 -0.2634 -0.9244
vn -0.0678 -0.9402 -0.3337
vn -0.3578 0.0932 0.9291
vn 0.2753 -0.1069 -0.9554
vn -0.1896 0.1126 0.9754
vn 0.2655 -0.1018 -0.9587
vn -0.2723 0.1052 0.9564
vn -0.0898 0.9954 0.0320
vn 0.2740 -0.1059 -0.9559
vn 0.2403 0.1847 0.9530
vn -0.2616 0.1068 0.9593
vn 0.1147 0.1819 0.9766
vn 0.5098 -0.0774 -0.8568
vn -0.0535 -0.1805 -0.9821
vn 0.1356 -0.9908 -0.0040
vn -0.2523 -0.1840 -0.9500
vn 0.5358 -0.2266 -0.8134
vn -0.5845 -0.0953 0.8058
vn 0.4885 -0.2758 -0.8279
vn -0.4045 -0.1035 0.9087
vn 0.4610 0.1466 -0.8752
vn 0.5133 0.0717 -0.8552
vn -0.6003 0.2145 0.7705
vn -0.4257 0.2614 0.8663
vn -0.5128 0.2529 0.8204
vn -0.1278 0.9382 0.3217
vn 0.5002 0.0875 -0.8615
vn -0.1774 0.9186 -0.3530
vn -0.4851 -0.1087 0.8677
vn 0.1456 -0.9169 0.3717
vn 0.5147 -0.2307 -0.8257
vn 0.0580 -0.9406 -0.3346
vn -0.5996 0.0571 0.7983
vn 0.5304 -0.0754 -0.8444
vn -0.4230 0.0913 0.9015
vn 0.4865 -0.0769 -0.8703
vn -0.5121 0.0771 0.8554
vn -0.1346 0.9909 0.0052
vn 0.5144 -0.0776 -0.8541
vn -0.0939 0.1811 0.9790
vn -0.4990 0.0800 0.8629
vn -0.2450 0.1574 0.9567
vn 0.7651 -0.0200 -0.6436
vn 0.3142 -0.1433 -0.9385
vn 0.1501 -0.9879 0.0378
vn 0.0770 -0.1824 -0.9802
vn 0.7914 -0.1663 -0.5882
vn -0.8198 -0.1420 0.5548
vn 0.7363 -0.2323 -0.6355
vn -0.6658 -0.1573 0.7293
vn 0.6996 0.2065 -0.6840
vn 0.7716 0.1245 -0.6238
vn -0.8349 0.1545 0.5283
vn -0.6921 0.2171 0.6883
vn -0.7645 0.2004 0.6127
vn -0.2594 0.9267 0.2719
vn 0.7507 0.1404 -0.6456
vn -0.0824 0.9205 -0.3818
vn -0.7351 -0.1670 0.6571
vn 0.0192 -0.9287 0.3704
vn 0.7682 -0.1715 -0.6168
vn 0.2061 -0.9334 -0.2938
vn -0.8362 -0.0008 0.5484
vn 0.7898 -0.0164 -0.6132
vn -0.6922 0.0419 0.7204
vn 0.7372 -0.0262 -0.6751
vn -0.7672 0.0195 0.6411
vn -0.1503 0.9880 -0.0368
vn 0.7698 -0.0197 -0.6380
vn -0.4829 0.1082 0.8690
vn -0.7561 0.0235 0.6540
vn -0.6384 0.0474 0.7682
vn 0.9617 0.0313 -0.2724
vn 0.7216 -0.0203 -0.6920
vn 0.1216 -0.9925 -0.0086
vn 0.4616 -0.1145 -0.8797
vn 0.9724 -0.1179 -0.2013
vn -0.9854 -0.1139 0.1269
vn 0.9238 -0.1875 -0.3337
vn -0.8866 -0.2250 0.4040
vn 0.8918 0.2769 -0.3577
vn 0.9693 0.1337 -0.2063
vn -0.9848 0.1051 0.1381
vn -0.9061 0.1661 0.3892
vn -0.9532 0.1486 0.2633
vn -0.3673 0.9012 0.2302
vn 0.9515 0.1686 -0.2574
vn 0.0830 0.9507 -0.2989
vn -0.9352 -0.2176 0.2795
vn -0.1433 -0.9727 0.1826
vn 0.9590 -0.1031 -0.2641
vn 0.3182 -0.9154 -0.2466
vn -0.9908 -0.0241 0.1331
vn 0.9784 0.0224 -0.2054
vn -0.9146 -0.0167 0.4039
vn 0.9348 0.0244 -0.3545
vn -0.9630 -0.0313 0.2679
vn -0.1197 0.9928 0.0068
vn 0.9642 0.0305 -0.2635
vn -0.8867 -0.0043 0.4623
vn -0.9559 -0.0298 0.2922
vn 0.8731 0.0023 -0.4876
usemtl (null).005
s 1
f 7/1/1 8/2/1 10/3/1 9/4/1
f 11/5/2 12/6/2 13/7/2 14/8/2
f 15/9/3 16/10/3 17/11/3 18/12/3
f 19/13/4 20/14/4 21/15/4 22/16/4
f 23/17/5 24/18/5 25/19/5 26/20/5
f 27/21/6 28/22/6 29/23/6 30/24/6
f 31/25/7 23/17/7 11/5/7
f 12/6/8 26/20/8 15/9/8
f 32/26/9 20/14/9 24/18/9
f 16/10/10 25/19/10 19/13/10
f 33/27/11 28/22/11 21/15/11
f 34/28/12 14/8/12 35/29/12
f 13/7/13 18/12/13 36/30/13
f 17/11/14 22/16/14 27/21/14
f 24/18/15 23/17/15 31/25/15 32/26/15
f 23/17/16 26/20/16 12/6/16 11/5/16
f 26/20/17 25/19/17 16/10/17 15/9/17
f 25/19/18 24/18/18 20/14/18 19/13/18
f 33/27/19 34/28/19 35/29/19 28/22/19
f 14/8/20 13/7/20 36/30/20 35/29/20
f 18/12/21 17/11/21 27/21/21 36/30/21
f 22/16/22 21/15/22 28/22/22 27/21/22
f 15/9/23 18/12/23 13/7/23 12/6/23
f 34/28/24 31/25/24 11/5/24 14/8/24
f 19/13/25 22/16/25 17/11/25 16/10/25
f 21/15/26 20/14/26 32/26/26 33/27/26
f 32/26/27 31/25/27 34/28/27 33/27/27
f 37/31/28 38/32/28 30/24/28 29/23/28
f 36/30/29 27/21/29 30/24/29 38/32/29
f 35/29/30 36/30/30 38/32/30 37/31/30
f 28/22/31 35/29/31 37/31/31 29/23/31
f 39/33/32 40/34/32 41/35/32 42/36/32
f 43/37/33 44/38/33 45/39/33 46/40/33
f 47/41/34 48/42/34 49/43/34 50/44/34
f 51/45/35 52/46/35 53/47/35 54/48/35
f 55/49/36 56/50/36 57/51/36 58/52/36
f 59/53/37 51/45/37 39/33/37
f 40/34/38 54/48/38 43/37/38
f 60/54/39 48/42/39 52/46/39
f 44/38/40 53/47/40 47/41/40
f 61/55/41 56/50/41 49/43/41
f 62/56/42 42/36/42 63/57/42
f 41/35/43 46/40/43 64/58/43
f 45/39/44 50/44/44 55/49/44
f 52/46/45 51/45/45 59/53/45 60/54/45
f 51/45/46 54/48/46 40/34/46 39/33/46
f 54/48/47 53/47/47 44/38/47 43/37/47
f 53/47/48 52/46/48 48/42/48 47/41/48
f 61/55/49 62/56/49 63/57/49 56/50/49
f 42/36/50 41/35/50 64/58/50 63/57/50
f 46/40/51 45/39/51 55/49/51 64/58/51
f 50/44/52 49/43/52 56/50/52 55/49/52
f 43/37/53 46/40/53 41/35/53 40/34/53
f 62/56/54 59/53/54 39/33/54 42/36/54
f 47/41/55 50/44/55 45/39/55 44/38/55
f 49/43/56 48/42/56 60/54/56 61/55/56
f 60/54/57 59/53/57 62/56/57 61/55/57
f 65/59/58 66/60/58 58/52/58 57/51/58
f 64/58/59 55/49/59 58/52/59 66/60/59
f 63/57/60 64/58/60 66/60/60 65/59/60
f 56/50/61 63/57/61 65/59/61 57/51/61
f 67/61/62 68/62/62 69/63/62 70/64/62
f 71/65/63 72/66/63 73/67/63 74/68/63
f 75/69/64 76/70/64 77/71/64 78/72/64
f 79/73/65 80/74/65 81/75/65 82/76/65
f 83/77/66 84/78/66 85/79/66 86/80/66
f 87/81/67 79/73/67 67/61/67
f 68/62/68 82/76/68 71/65/68
f 88/82/69 76/70/69 80/74/69
f 72/66/70 81/75/70 75/69/70
f 89/83/71 84/78/71 77/71/71
f 90/84/72 70/64/72 91/85/72
f 69/63/73 74/68/73 92/86/73
f 73/67/74 78/72/74 83/77/74
f 80/74/75 79/73/75 87/81/75 88/82/75
f 79/73/76 82/76/76 68/62/76 67/61/76
f 82/76/77 81/75/77 72/66/77 71/65/77
f 81/75/78 80/74/78 76/70/78 75/69/78
f 89/83/79 90/84/79 91/85/79 84/78/79
f 70/64/80 69/63/80 92/86/80 91/85/80
f 74/68/81 73/67/81 83/77/81 92/86/81
f 78/72/82 77/71/82 84/78/82 83/77/82
f 71/65/83 74/68/83 69/63/83 68/62/83
f 90/84/84 87/81/84 67/61/84 70/64/84
f 75/69/85 78/72/85 73/67/85 72/66/85
f 77/71/86 76/70/86 88/82/86 89/83/86
f 88/82/87 87/81/87 90/84/87 89/83/87
f 93/87/88 94/88/88 86/80/88 85/79/88
f 92/86/89 83/77/89 86/80/89 94/88/89
f 91/85/90 92/86/90 94/88/90 93/87/90
f 84/78/91 91/85/91 93/87/91 85/79/91
f 95/89/92 96/90/92 97/91/92 98/92/92
f 99/93/93 100/94/93 101/95/93 102/96/93
f 103/97/94 104/98/94 105/99/94 106/100/94
f 107/101/95 108/102/95 109/103/95 110/104/95
f 111/105/96 112/106/96 113/107/96 114/108/96
f 115/109/97 107/101/97 95/89/97
f 96/90/98 110/104/98 99/93/98
f 116/110/99 104/98/99 108/102/99
f 100/94/100 109/103/100 103/97/100
f 117/111/101 112/106/101 105/99/101
f 118/112/102 98/92/102 119/113/102
f 97/91/103 102/96/103 120/114/103
f 101/95/104 106/100/104 111/105/104
f 108/102/105 107/101/105 115/109/105 116/110/105
f 107/101/106 110/104/106 96/90/106 95/89/106
f 110/104/107 109/103/107 100/94/107 99/93/107
f 109/103/108 108/102/108 104/98/108 103/97/108
f 117/111/109 118/112/109 119/113/109 112/106/109
f 98/92/110 97/91/110 120/114/110 119/113/110
f 102/96/111 101/95/111 111/105/111 120/114/111
f 106/100/112 105/99/112 112/106/112 111/105/112
f 99/93/113 102/96/113 97/91/113 96/90/113
f 118/112/114 115/109/114 95/89/114 98/92/114
f 103/97/115 106/100/115 101/95/115 100/94/115
f 105/99/116 104/98/116 116/110/116 117/111/116
f 116/110/117 115/109/117 118/112/117 117/111/117
f 121/115/118 122/116/118 114/108/118 113/107/118
f 120/114/119 111/105/119 114/108/119 122/116/119
f 119/113/120 120/114/120 122/116/120 121/115/120
f 112/106/121 119/113/121 121/115/121 113/107/121
f 127/117/122 128/118/122 129/119/122 130/120/122
l 1 2
l 3 4
l 3 5
l 1 4
l 6 7
l 2 8
l 5 6
l 123 124
l 125 126
l 125 131
l 123 126
l 128 132
l 124 127
l 131 132
