# Blender v2.79 (sub 0) OBJ File: 'ramp.blend'
# www.blender.org
mtllib ramp.mtl
o Cube
v 1.793711 0.480426 -2.475812
v 1.793711 0.480426 -0.475812
v -0.206289 0.480426 -0.475812
v -0.206289 0.480426 -2.475812
v 1.793711 2.480426 -2.475811
v 2.992189 0.470166 0.071650
v 0.782166 0.213078 1.635595
v -0.206289 2.480426 -2.475812
v 1.793711 0.480426 -2.475812
v 1.793711 0.480426 -0.475812
v 1.793711 2.480426 -2.475811
v 3.215471 0.843830 -2.112407
v 3.269808 0.448179 -0.040767
v 3.509552 2.371664 -1.468092
v 1.993490 0.268864 1.701366
v 1.793711 2.480426 -2.475811
v 2.992189 0.470166 0.071650
v 0.782166 0.213078 1.635595
v 1.793711 2.480426 -2.475811
v 3.215471 0.843830 -2.112407
v 3.269808 0.448179 -0.040767
v 3.509552 2.371664 -1.468092
v 1.993490 0.268864 1.701366
v -0.206289 0.480426 -2.475812
v -0.206289 0.480426 -0.475812
v 1.793711 0.480426 -0.475812
v 1.793710 0.480426 -2.475812
v -0.206290 2.480426 -2.475811
v -1.404767 0.470166 0.071650
v 0.805255 0.213078 1.635595
v 1.793711 2.480426 -2.475812
v -0.206289 0.480426 -2.475812
v -0.206289 0.480426 -0.475812
v -0.206290 2.480426 -2.475811
v -1.628049 0.843830 -2.112407
v -1.682386 0.448179 -0.040767
v -1.922131 2.371664 -1.468092
v -0.406069 0.268864 1.701366
v -0.206290 2.480426 -2.475811
v -1.404767 0.470166 0.071650
v 0.805255 0.213078 1.635595
v -0.206290 2.480426 -2.475811
v -1.628049 0.843830 -2.112407
v -1.682386 0.448179 -0.040767
v -1.922131 2.371664 -1.468092
v -0.406069 0.268864 1.701366
vn 0.0000 -1.0000 0.0000
vn 0.1350 0.8532 0.5038
vn 0.0000 0.0000 1.0000
vn 0.0169 -0.9929 -0.1176
vn -0.9398 0.2417 0.2417
vn 0.0000 0.0000 -1.0000
vn 0.1395 -0.9854 -0.0976
vn -0.0402 0.9935 0.1066
vn 0.0272 -0.9947 -0.0992
vn 0.3876 0.1342 -0.9120
vn -0.1559 0.8699 0.4680
vn -0.2698 -0.8136 -0.5151
vn 0.9401 0.1197 0.3193
vn -0.1350 0.8532 0.5038
vn -0.0169 -0.9929 -0.1176
vn 0.9398 0.2417 0.2417
vn -0.1395 -0.9854 -0.0976
vn 0.0402 0.9935 0.1066
vn -0.0272 -0.9947 -0.0992
vn -0.3876 0.1342 -0.9120
vn 0.1559 0.8699 0.4680
vn 0.2698 -0.8136 -0.5151
vn -0.9401 0.1197 0.3193
usemtl Material
s off
f 1//1 2//1 3//1 4//1
f 5//2 8//2 7//2 6//2
f 6//3 7//3 18//3 17//3
f 2//4 6//4 7//4 3//4
f 3//5 7//5 8//5 4//5
f 5//6 1//6 4//6 8//6
f 10//7 9//7 12//7 13//7
f 6//8 2//8 10//8 7//8
f 1//3 5//3 11//3 9//3
f 2//3 1//3 9//3 10//3
f 15//3 13//3 21//3 23//3
f 7//9 10//9 13//9 15//9
f 9//10 11//10 14//10 12//10
f 11//11 7//11 15//11 14//11
f 16//12 17//12 18//12 19//12
f 20//13 22//13 23//13 21//13
f 13//3 12//3 20//3 21//3
f 5//3 6//3 17//3 16//3
f 14//3 15//3 23//3 22//3
f 12//3 14//3 22//3 20//3
f 7//3 11//3 19//3 18//3
f 11//3 5//3 16//3 19//3
f 24//1 27//1 26//1 25//1
f 28//14 29//14 30//14 31//14
f 29//3 40//3 41//3 30//3
f 25//15 26//15 30//15 29//15
f 26//16 27//16 31//16 30//16
f 28//6 31//6 27//6 24//6
f 33//17 36//17 35//17 32//17
f 29//18 30//18 33//18 25//18
f 24//3 32//3 34//3 28//3
f 25//3 33//3 32//3 24//3
f 38//3 46//3 44//3 36//3
f 30//19 38//19 36//19 33//19
f 32//20 35//20 37//20 34//20
f 34//21 37//21 38//21 30//21
f 39//22 42//22 41//22 40//22
f 43//23 44//23 46//23 45//23
f 36//3 44//3 43//3 35//3
f 28//3 39//3 40//3 29//3
f 37//3 45//3 46//3 38//3
f 35//3 43//3 45//3 37//3
f 30//3 41//3 42//3 34//3
f 34//3 42//3 39//3 28//3
